<?xml version="1.0" encoding="UTF-8" standalone="no"?>
<!-- Created with Inkscape (http://www.inkscape.org/) -->

<svg
   version="1.1"
   id="svg13149"
   xml:space="preserve"
   width="1066.6667"
   height="1066.6667"
   viewBox="0 0 1066.6667 1066.6667"
   sodipodi:docname="natural-landscape-pdv.svg"
   inkscape:version="1.1.2 (b8e25be833, 2022-02-05)"
   xmlns:inkscape="http://www.inkscape.org/namespaces/inkscape"
   xmlns:sodipodi="http://sodipodi.sourceforge.net/DTD/sodipodi-0.dtd"
   xmlns="http://www.w3.org/2000/svg"
   xmlns:svg="http://www.w3.org/2000/svg"><defs
     id="defs13153"><clipPath
       clipPathUnits="userSpaceOnUse"
       id="clipPath13163"><path
         d="M 0,800 H 800 V 0 H 0 Z"
         id="path13161" /></clipPath></defs><sodipodi:namedview
     id="namedview13151"
     pagecolor="#ffffff"
     bordercolor="#666666"
     borderopacity="1.0"
     inkscape:pageshadow="2"
     inkscape:pageopacity="0.0"
     inkscape:pagecheckerboard="0"
     showgrid="false"
     inkscape:zoom="0.77906244"
     inkscape:cx="533.33337"
     inkscape:cy="533.33337"
     inkscape:window-width="1920"
     inkscape:window-height="1018"
     inkscape:window-x="-8"
     inkscape:window-y="-8"
     inkscape:window-maximized="1"
     inkscape:current-layer="g13155" /><g
     id="g13155"
     inkscape:groupmode="layer"
     inkscape:label="natural-landscape-pdv"
     transform="matrix(1.3333333,0,0,-1.3333333,0,1066.6667)"><g
       id="g13157"><g
         id="g13159"
         clip-path="url(#clipPath13163)"><path
           d="M 2.438,-2.119 803.729,-2.12 V 799.171 H 2.438 Z"
           style="fill:#bfdce3;fill-opacity:1;fill-rule:evenodd;stroke:none"
           id="path13165" /><path
           d="m 437.147,634.508 c -0.136,11.162 -9.224,20.169 -20.418,20.169 -4.174,0 -8.056,-1.253 -11.29,-3.403 -5.191,6.223 -13.001,10.184 -21.736,10.184 -4.126,0 -8.043,-0.884 -11.577,-2.471 -4.759,3.258 -10.517,5.164 -16.72,5.164 -9.131,0 -17.295,-4.128 -22.733,-10.618 -4.519,24.26 -25.797,42.629 -51.368,42.629 -24.914,0 -45.752,-17.436 -50.988,-40.769 -6.271,-1.418 -11.727,-4.987 -15.551,-9.891 -5.22,2.73 -11.158,4.277 -17.458,4.277 -6.1,0 -11.862,-1.449 -16.96,-4.021 -3.365,8.159 -11.395,13.902 -20.768,13.902 -7.732,0 -14.551,-3.909 -18.591,-9.856 -2.692,2.755 -6.447,4.466 -10.604,4.466 -8.186,0 -14.822,-6.635 -14.822,-14.821 0,-1.733 0.298,-3.395 0.845,-4.941 z"
           style="fill:#d9e7eb;fill-opacity:1;fill-rule:evenodd;stroke:none"
           id="path13167" /><path
           d="m 325.21,555.609 c 3.232,0 6.213,-1.068 8.612,-2.87 3.487,7.352 10.978,12.438 19.655,12.438 l 0.094,-0.002 c -0.061,0.863 -0.094,1.733 -0.094,2.611 0,10.891 4.768,20.668 12.328,27.36 -5.455,5.295 -8.848,12.706 -8.848,20.91 0,15.594 12.251,28.327 27.655,29.099 7.669,15.741 22.157,27.549 39.619,31.58 3.481,14.89 14.389,26.922 28.605,31.978 -1.251,2.777 -1.948,5.859 -1.948,9.102 0,12.249 9.93,22.179 22.178,22.179 12.25,0 22.179,-9.93 22.179,-22.179 0,-4.852 -1.559,-9.339 -4.201,-12.989 8.177,-4.962 14.639,-12.467 18.291,-21.418 28.932,-1.231 52.011,-25.071 52.011,-54.306 0,-4.362 -0.52,-8.603 -1.489,-12.668 4.219,-5.857 6.706,-13.047 6.706,-20.816 0,-1.477 -0.089,-2.932 -0.263,-4.362 0.232,0.007 0.465,0.013 0.698,0.013 8.981,0 16.713,-5.338 20.202,-13.015 3.433,3.991 8.518,6.518 14.195,6.518 10.334,0 18.711,-8.377 18.711,-18.713 0,-2.852 -0.64,-5.557 -1.783,-7.977 2.453,-3.293 3.905,-7.374 3.905,-11.795 l -0.004,-0.245 H 311.678 c 1.969,5.574 7.284,9.567 13.532,9.567"
           style="fill:#e8f4f7;fill-opacity:1;fill-rule:evenodd;stroke:none"
           id="path13169" /><path
           d="m 803.729,651.636 c -25.181,2.973 -48.066,-2.862 -65.777,-28.532 -29.632,9.906 -55.803,5.973 -76.719,-18.982 -34.712,21.381 -60.27,5.003 -84.967,-14.938 -56.112,36.705 -96.366,-23.415 -86.491,-83.527 0.497,-3.017 1.602,-5.774 3.197,-8.151 5.321,-7.928 4.503,-18.173 -2.012,-25.155 -1.377,-1.477 -2.558,-3.194 -3.498,-5.12 -22.752,-46.598 -25.165,-96.41 -28.843,-146.019 l 345.11,-3.27 z"
           style="fill:#88b8ae;fill-opacity:1;fill-rule:evenodd;stroke:none"
           id="path13171" /><path
           d="m 790.784,382.594 c 2.27,24.06 -4.503,142.657 -21.66,198.043 -3.416,11.017 -13.768,17.966 -25.26,16.961 -23.229,-2.035 -12.142,-20.285 -24.655,-42.757 -0.524,9.814 -1.047,19.629 -1.569,29.443 -0.356,6.668 -3.038,12.28 -8.008,16.741 -4.969,4.461 -10.837,6.528 -17.504,6.165 -8.882,-0.483 -17.068,-2.939 -24.516,-7.478 -17.382,-10.596 -3.653,-75.559 -21.956,-101.118 -1.313,24.642 -2.625,49.284 -3.938,73.926 -0.519,9.771 -6.39,17.837 -15.529,21.338 -10.451,4.004 -20.288,3.876 -29.655,0.6 -24.276,-8.494 -1.021,-92.438 -28.282,-116.892 3.505,49.529 8.314,90.355 -7.904,106.498 -61.748,35.415 -122.594,-96.521 -15.07,-97.248 -27.866,-20.251 -75.519,-10.962 -67.715,-124.285 74.31,19.32 238.911,0.742 313.221,20.063"
           style="fill:#9dc7be;fill-opacity:1;fill-rule:evenodd;stroke:none"
           id="path13173" /><path
           d="m 240.246,306.815 c -2.118,70.542 -5.59,140.258 -26.596,199.257 -1.751,4.921 -5.039,8.835 -9.219,11.309 -9.063,5.364 -12.871,16.245 -9.132,26.09 1.262,3.321 1.688,7 1.144,10.776 -4.768,33.128 -29.215,66.402 -56.902,63.569 -26.873,-2.75 -32.276,-38.904 -34.481,-70.878 -0.295,-4.293 0.663,-8.386 2.6,-11.896 4.497,-8.151 3.387,-17.808 -2.842,-24.725 -2.058,-2.286 -3.579,-5.035 -4.531,-8.21 -4.028,-13.427 -8.057,-26.857 -12.086,-40.286 -2.847,26.656 -5.695,53.312 -8.54,79.967 -0.526,4.926 -2.466,9.124 -5.78,12.531 -6.888,7.077 -8.103,17.543 -3.022,26.01 3.299,5.498 4.041,12.366 1.567,18.766 -13.978,36.151 -37.394,60.988 -69.988,73.87 V 173.094 c 93.793,39.821 144.014,93.899 237.808,133.721"
           style="fill:#9dc7be;fill-opacity:1;fill-rule:evenodd;stroke:none"
           id="path13175" /><path
           d="m 139.541,617.816 c -26.873,-2.75 -32.276,-38.904 -34.481,-70.878 -0.295,-4.293 0.663,-8.386 2.6,-11.896 4.497,-8.151 3.387,-17.808 -2.842,-24.725 -2.058,-2.286 -3.579,-5.035 -4.531,-8.21 L 88.453,462.662 v -2.808 c -0.085,0.656 -0.168,1.313 -0.252,1.967 8.311,-27.313 16.622,-54.626 24.934,-81.938 -5.144,36.521 -6.965,73.78 -2.321,112.476 0.776,6.469 4.019,11.729 9.451,15.329 0.483,0.32 0.966,0.641 1.448,0.961 6.843,4.536 10.349,11.985 9.485,20.149 -0.615,5.813 -3.324,10.808 -7.592,14.286 -5.747,4.685 -8.527,11.366 -7.798,18.746 2.463,24.946 7.261,47.201 23.733,55.986"
           style="fill:#88b8ae;fill-opacity:1;fill-rule:evenodd;stroke:none"
           id="path13177" /><path
           d="M 803.729,422.468 V 39.637 c -4.307,-0.43 -8.675,-0.654 -13.095,-0.654 -71.719,0 -129.86,58.14 -129.86,129.859 0,14.343 2.33,28.141 6.628,41.041 -14.363,-15.026 -34.607,-24.383 -57.034,-24.383 -35.678,0 -65.815,23.681 -75.57,56.181 -9.15,-13.755 -24.788,-22.822 -42.546,-22.822 -18.981,0 -35.543,10.358 -44.346,25.727 -7.839,-20.637 -27.796,-35.307 -51.183,-35.307 -17.84,0 -33.684,8.535 -43.679,21.743 -8.06,-2.467 -16.618,-3.796 -25.487,-3.796 -17.467,0 -33.728,5.15 -47.357,14.008 -10.384,-12.993 -26.364,-21.318 -44.292,-21.318 -5.676,0 -11.156,0.838 -16.327,2.391 -10.683,-38.348 -45.86,-66.487 -87.615,-66.487 -28.967,0 -54.77,13.545 -71.425,34.645 l -0.386,0.062 C 48.47,173.498 28.87,162.328 6.657,162.328 c -1.418,0 -2.824,0.049 -4.219,0.14 V 330.48 c 5.987,8.152 13.334,15.241 21.71,20.935 -1.345,3.917 -2.076,8.119 -2.076,12.493 0,21.238 17.216,38.455 38.455,38.455 18.952,0 34.703,-13.71 37.873,-31.754 5.843,3.19 12.545,5.004 19.671,5.004 18.914,0 34.843,-12.775 39.63,-30.169 7.217,5.135 16.045,8.156 25.577,8.156 9.752,0 18.763,-3.162 26.07,-8.515 0.537,34.804 28.912,62.852 63.843,62.852 12.153,0 23.513,-3.395 33.183,-9.289 6.781,1.697 13.876,2.601 21.183,2.601 26.916,0 50.976,-12.225 66.937,-31.421 8.485,4.405 18.125,6.899 28.348,6.899 7.01,0 13.745,-1.175 20.023,-3.332 5.837,22.436 26.232,39.001 50.497,39.001 18.589,0 34.905,-9.723 44.146,-24.36 3.654,0.624 7.411,0.952 11.243,0.952 12.676,0 24.52,-3.558 34.59,-9.728 9.528,22.113 31.515,37.594 57.121,37.594 16.45,0 31.406,-6.392 42.526,-16.824 11.963,6.465 25.656,10.137 40.209,10.137 14.336,0 27.837,-3.567 39.674,-9.853 10.624,11.391 24.846,19.381 40.858,22.154"
           style="fill:#768f43;fill-opacity:1;fill-rule:evenodd;stroke:none"
           id="path13179" /><path
           d="M 2.438,-2.119 803.729,-2.12 V 186.471 H 2.438 Z"
           style="fill:#854822;fill-opacity:1;fill-rule:evenodd;stroke:none"
           id="path13181" /><path
           d="m 791.563,261.732 c -0.496,20.285 -6.221,38.524 -18.601,54.157 0.551,-13.043 0.036,-25.091 -1.501,-36.193 -8.014,4.754 -17.066,8.088 -26.963,10.277 10.263,-8.221 18.001,-17.332 23.657,-27.174 -1.584,-6.143 -3.532,-11.944 -5.84,-17.413 h -3.579 c -3.427,27.752 -18.988,46.103 -42.07,58.629 13.554,-19.099 18.674,-38.693 17.976,-58.629 h -1.046 c -3.662,15.181 -11.403,27.204 -22.251,36.818 -3.01,10.31 -7.86,19.9 -14.805,28.668 0.266,-6.25 0.283,-12.271 0.062,-18.071 -1.116,0.655 -2.248,1.297 -3.402,1.923 1.153,-1.62 2.238,-3.245 3.268,-4.873 -0.648,-12.277 -2.399,-23.531 -5.195,-33.812 -2.198,7.342 -5.4,13.906 -9.488,19.786 -2.58,13.334 -3.57,28.146 -2.877,44.523 -6.569,-8.292 -11.264,-17.319 -14.3,-26.994 -3.91,2.928 -8.142,5.604 -12.664,8.059 4.179,-5.888 7.553,-11.82 10.205,-17.796 -1.378,-7.074 -1.977,-14.452 -1.866,-22.108 -2.982,7.72 -7.103,14.993 -12.474,21.774 0.512,-12.14 0.101,-23.422 -1.199,-33.881 -2.572,13.323 -3.56,28.118 -2.868,44.471 -8.262,-10.43 -13.559,-22.023 -16.317,-34.608 -2.166,8.722 -5.688,16.395 -10.375,23.162 -2.208,12.627 -3.029,26.544 -2.381,41.822 -5.73,-7.233 -10.03,-15.025 -13.05,-23.318 -2.873,6.743 -6.646,13.132 -11.402,19.137 0.2,-4.729 0.258,-9.326 0.179,-13.795 -1.064,0.623 -2.144,1.23 -3.244,1.828 1.117,-1.572 2.172,-3.145 3.176,-4.721 -0.467,-14.884 -2.499,-28.314 -6.006,-40.372 -1.197,10.157 -1.563,21.087 -1.068,32.817 -8.605,-10.865 -13.995,-22.988 -16.65,-36.183 -2.583,13.34 -3.575,28.159 -2.882,44.544 -7.995,-10.099 -13.217,-21.282 -16.043,-33.403 -2.955,11.016 -7.963,21.227 -15.322,30.52 0.694,-16.356 -0.297,-31.15 -2.868,-44.471 -1.299,10.459 -1.711,21.738 -1.197,33.881 -10.558,-13.329 -16.275,-28.555 -18.037,-45.327 h -3.794 c -0.185,2.284 -0.296,4.564 -0.33,6.84 0.381,4.136 0.577,8.198 0.577,12.186 1.694,15.051 7.124,29.884 17.447,44.429 -8.138,-4.418 -15.341,-9.56 -21.408,-15.581 -3.017,10.141 -7.828,19.583 -14.675,28.225 1.168,-27.59 -2.446,-50.742 -10.384,-69.875 -2.894,13.877 -4.032,29.384 -3.302,46.626 -8.074,-10.194 -13.318,-21.497 -16.124,-33.754 -1.661,3.571 -3.598,6.929 -5.787,10.089 -2.208,12.627 -3.028,26.544 -2.381,41.823 -6.138,-7.749 -10.638,-16.14 -13.679,-25.103 -2.279,1.768 -4.675,3.445 -7.178,5.04 -2.984,7.724 -7.104,15 -12.479,21.787 0.523,-12.36 0.085,-23.828 -1.27,-34.444 -6.769,-9.737 -11.149,-20.409 -13.459,-31.893 -2.584,13.342 -3.576,28.162 -2.882,44.548 -9.216,-11.636 -14.743,-24.715 -17.171,-39.008 -1.488,17.622 -7.236,33.576 -18.242,47.474 0.694,-16.387 -0.299,-31.205 -2.882,-44.547 -2.653,13.196 -8.043,25.321 -16.649,36.187 0.496,-11.733 0.128,-22.66 -1.07,-32.818 -3.507,12.059 -5.537,25.488 -6.003,40.372 1.002,1.576 2.059,3.15 3.173,4.721 -1.098,-0.597 -2.178,-1.206 -3.243,-1.829 -0.078,4.471 -0.019,9.067 0.18,13.798 -4.755,-6.006 -8.529,-12.396 -11.402,-19.137 -3.021,8.293 -7.322,16.083 -13.05,23.316 0.647,-15.279 -0.174,-29.194 -2.382,-41.823 -4.688,-6.767 -8.207,-14.439 -10.374,-23.159 -2.759,12.584 -8.055,24.177 -16.318,34.606 0.693,-16.355 -0.295,-31.148 -2.868,-44.472 -1.299,10.46 -1.712,21.74 -1.198,33.883 -5.372,-6.784 -9.492,-14.059 -12.476,-21.778 0.112,7.656 -0.486,15.038 -1.865,22.112 2.652,5.974 6.027,11.909 10.204,17.795 -4.521,-2.454 -8.753,-5.131 -12.663,-8.058 -3.035,9.675 -7.73,18.701 -14.299,26.992 0.693,-16.375 -0.299,-31.186 -2.877,-44.523 -4.088,-5.878 -7.291,-12.442 -9.489,-19.785 -4.324,15.891 -6.143,34.11 -5.267,54.834 -9.491,-11.983 -15.071,-25.498 -17.381,-40.291 -1.8,2.967 -3.803,5.855 -6.024,8.658 0.497,-11.731 0.127,-22.658 -1.07,-32.816 -3.505,12.06 -5.536,25.488 -6.003,40.37 1.002,1.577 2.06,3.15 3.174,4.721 -1.098,-0.597 -2.179,-1.204 -3.243,-1.829 -0.077,4.471 -0.019,9.068 0.18,13.798 -4.756,-6.005 -8.529,-12.395 -11.402,-19.139 -3.02,8.295 -7.323,16.085 -13.051,23.318 0.646,-15.277 -0.174,-29.192 -2.381,-41.819 -4.309,-6.222 -7.634,-13.204 -9.825,-21.067 h -1.034 c -2.874,11.778 -8.032,22.662 -15.834,32.51 0.492,-11.612 0.135,-22.438 -1.033,-32.51 h -2.911 c -0.401,6.971 -0.444,14.276 -0.121,21.922 -5.373,-6.785 -9.493,-14.059 -12.476,-21.777 0.111,7.657 -0.486,15.036 -1.865,22.11 2.652,5.976 6.027,11.909 10.204,17.796 -4.521,-2.455 -8.753,-5.132 -12.663,-8.059 -3.035,9.676 -7.73,18.699 -14.299,26.992 0.693,-16.377 -0.298,-31.19 -2.879,-44.528 l -0.264,-0.383 c -1.006,18.979 -6.762,36.096 -18.475,50.884 0.36,-8.509 0.264,-16.595 -0.271,-24.271 -2.82,12.177 -8.051,23.41 -16.08,33.549 0.523,-12.36 0.085,-23.83 -1.269,-34.447 -6.769,-9.736 -11.15,-20.406 -13.459,-31.889 -2.584,13.342 -3.576,28.16 -2.883,44.547 C 44.246,282.64 38.5,264.986 37.731,245.386 h -1.648 c -3.227,14.409 -4.522,30.611 -3.756,48.728 C 21.06,279.889 15.306,263.507 13.987,245.386 H 2.438 v -42.357 h 29.929 c 7.04,-3.52 14.888,-5.158 24.326,-3.102 -0.766,1.034 -1.53,2.068 -2.296,3.102 h 5.896 c 10.337,-9.349 25.363,-7.968 39.883,-7.747 -2.768,1.701 -4.679,4.188 -5.416,7.747 10.216,-3.226 20.431,-6.454 30.648,-9.679 9.2,-15.911 24.586,-19.941 41.914,-20.233 -11.651,8.778 -14.412,18.9 -2.864,29.912 h 29.513 c -1.65,-7.516 -4.744,-13.756 -10.825,-17.37 19.731,-4.636 31.083,5.571 41.534,17.37 h 36.7 c 15.9,-22.56 37.385,-16.207 42.634,-13.326 -4.937,2.821 -8.201,6.976 -8.708,13.326 h 25.127 c 0.024,-3.189 -1.289,-6.071 -3.296,-8.796 9.765,-0.983 16.735,1.974 20.962,8.796 h 64.769 c 14.504,-10.929 29.435,-10.06 40.176,-9.25 -2.813,2.629 -5.104,5.6 -6.347,9.25 25.443,0 50.885,-0.001 76.328,-0.001 11.992,-4.622 25.054,-7.086 39.632,-6.506 -2.396,1.737 -4.067,3.839 -4.617,6.506 h 48.657 c 2.089,-4.203 5.129,-7.022 8.881,-8.813 -0.615,2.702 -0.615,5.556 0.989,8.813 h 25.916 c -1.17,-6.87 -4.178,-11.521 -9.04,-13.934 10.513,-1.223 20.692,3.333 30.834,8.461 6.392,-4.793 14.016,-7.524 22.622,-8.599 -5.596,3.547 -10.475,7.543 -11.258,14.072 h 39.572 c 1.636,-7.247 6.919,-10.04 13.726,-10.966 -3.296,1.917 -5.855,4.579 -4.71,10.966 h 89.5 v 34.745 c -3.721,10.502 -3.559,12.498 -12.166,23.959"
           style="fill:#94b84c;fill-opacity:1;fill-rule:evenodd;stroke:none"
           id="path13183" /><path
           d="m 2.438,138.725 h 16.381 c 14.215,0 25.809,-11.593 25.809,-25.809 V 78.532 l 12.262,60.75 h 17.216 c 13.14,0 24.07,-9.703 25.628,-22.749 l 10.66,-89.274 6.568,87.587 c 1.013,13.5 12.2,23.879 25.738,23.879 h 8.649 c 13.009,0 23.852,-9.487 25.58,-22.38 l 4.246,-31.683 5.823,34.252 c 2.127,12.511 12.752,21.483 25.443,21.483 h 39.965 c 13.159,0 24.1,-9.733 25.634,-22.802 l 9.029,-76.96 1.572,60.136 c 0.365,13.975 11.821,25.134 25.8,25.134 h 12.572 c 12.967,0 23.783,-9.417 25.565,-22.261 l 7.501,-54.092 3.059,53.142 c 0.787,13.672 12.072,24.327 25.767,24.327 h 18.055 c 13.521,0 24.697,-10.35 25.734,-23.83 l 2.625,-34.132 13.422,44.604 c 3.334,11.081 13.144,18.375 24.715,18.375 h 10.768 c 13.804,0 25.156,-10.848 25.784,-24.638 l 3.338,-73.455 6.501,83.21 c 1.051,13.468 12.222,23.8 25.731,23.8 h 39.367 c 11.847,0 21.864,-7.687 24.929,-19.13 l 5.338,-19.918 3.777,18.861 c 2.439,12.186 12.879,20.744 25.307,20.744 h 64.03 c 13.152,0 24.087,-9.721 25.631,-22.78 l 10.683,-90.36 7.026,88.263 c 1.072,13.454 12.231,23.762 25.73,23.762 h 26.333 v 46.074 L 2.438,190.465 Z"
           style="fill:#6b391a;fill-opacity:1;fill-rule:evenodd;stroke:none"
           id="path13185" /><path
           d="m 14.605,231.797 c 0.494,20.285 6.219,38.523 18.601,54.157 -0.553,-13.043 -0.036,-25.091 1.5,-36.194 8.013,4.754 17.066,8.09 26.963,10.277 -10.262,-8.222 -18.001,-17.331 -23.657,-27.175 1.582,-6.141 3.532,-11.943 5.839,-17.411 h 3.579 c 3.427,27.752 18.989,46.104 42.071,58.629 C 75.947,254.981 70.827,235.388 71.525,215.451 h 1.045 c 3.665,15.182 11.403,27.204 22.252,36.819 3.01,10.309 7.859,19.899 14.804,28.668 -0.264,-6.25 -0.282,-12.274 -0.062,-18.072 1.116,0.655 2.248,1.297 3.402,1.923 -1.152,-1.62 -2.237,-3.247 -3.268,-4.875 0.65,-12.275 2.399,-23.53 5.196,-33.811 2.198,7.343 5.4,13.907 9.488,19.786 2.579,13.336 3.57,28.147 2.878,44.522 6.568,-8.292 11.263,-17.316 14.298,-26.992 3.91,2.929 8.142,5.604 12.664,8.058 -4.178,-5.886 -7.553,-11.819 -10.204,-17.794 1.378,-7.075 1.977,-14.453 1.866,-22.109 2.983,7.718 7.102,14.992 12.474,21.775 -0.513,-12.141 -0.101,-23.424 1.198,-33.881 2.572,13.321 3.561,28.117 2.869,44.47 8.262,-10.43 13.558,-22.023 16.317,-34.608 2.166,8.721 5.687,16.395 10.375,23.162 2.208,12.627 3.028,26.544 2.38,41.821 5.729,-7.233 10.031,-15.025 13.051,-23.318 2.873,6.742 6.646,13.132 11.402,19.137 -0.2,-4.728 -0.258,-9.325 -0.179,-13.795 1.063,0.622 2.144,1.231 3.243,1.828 -1.115,-1.57 -2.172,-3.144 -3.174,-4.721 0.466,-14.883 2.496,-28.312 6.004,-40.372 1.197,10.158 1.565,21.087 1.069,32.819 8.605,-10.867 13.994,-22.989 16.649,-36.184 2.583,13.34 3.575,28.159 2.882,44.543 7.997,-10.098 13.217,-21.28 16.044,-33.401 2.956,11.013 7.962,21.226 15.321,30.518 -0.692,-16.355 0.297,-31.148 2.869,-44.471 1.298,10.458 1.711,21.739 1.197,33.88 10.558,-13.329 16.276,-28.552 18.039,-45.325 h 3.792 c 0.185,2.284 0.296,4.565 0.33,6.84 -0.381,4.136 -0.578,8.198 -0.578,12.184 -1.693,15.052 -7.124,29.886 -17.446,44.43 8.139,-4.417 15.341,-9.558 21.408,-15.58 3.017,10.142 7.828,19.583 14.675,28.226 -1.168,-27.591 2.446,-50.742 10.385,-69.875 2.893,13.877 4.031,29.383 3.301,46.626 8.074,-10.197 13.316,-21.499 16.124,-33.754 1.662,3.57 3.597,6.929 5.787,10.089 2.208,12.627 3.028,26.542 2.381,41.821 6.138,-7.75 10.637,-16.14 13.678,-25.102 2.281,1.767 4.676,3.446 7.179,5.04 2.985,7.723 7.105,15 12.479,21.788 -0.523,-12.363 -0.085,-23.83 1.269,-34.448 6.769,-9.736 11.15,-20.408 13.46,-31.89 2.584,13.342 3.576,28.163 2.882,44.547 9.215,-11.635 14.744,-24.713 17.17,-39.006 1.49,17.622 7.236,33.576 18.243,47.472 -0.694,-16.385 0.298,-31.204 2.881,-44.546 2.654,13.195 8.044,25.32 16.649,36.187 -0.495,-11.732 -0.127,-22.66 1.07,-32.818 3.508,12.057 5.537,25.488 6.004,40.371 -1.002,1.578 -2.059,3.151 -3.173,4.722 1.098,-0.597 2.179,-1.207 3.241,-1.829 0.079,4.47 0.021,9.068 -0.179,13.795 4.758,-6.005 8.529,-12.392 11.403,-19.136 3.021,8.294 7.322,16.085 13.05,23.319 -0.647,-15.28 0.174,-29.195 2.382,-41.824 4.687,-6.767 8.208,-14.44 10.374,-23.161 2.759,12.585 8.054,24.177 16.316,34.609 -0.69,-16.356 0.296,-31.151 2.871,-44.473 1.297,10.459 1.71,21.74 1.198,33.883 5.372,-6.783 9.492,-14.059 12.474,-21.778 -0.111,7.656 0.486,15.037 1.865,22.11 -2.652,5.976 -6.027,11.91 -10.204,17.796 4.522,-2.453 8.754,-5.131 12.664,-8.057 3.035,9.675 7.731,18.7 14.298,26.992 -0.693,-16.375 0.299,-31.187 2.877,-44.523 4.088,-5.88 7.292,-12.442 9.488,-19.784 4.326,15.89 6.146,34.109 5.269,54.833 9.491,-11.983 15.071,-25.497 17.381,-40.29 1.802,2.966 3.803,5.854 6.023,8.657 -0.497,-11.73 -0.127,-22.658 1.071,-32.816 3.506,12.057 5.537,25.488 6.003,40.371 -1.001,1.576 -2.059,3.149 -3.175,4.72 1.099,-0.597 2.18,-1.205 3.244,-1.829 0.078,4.471 0.019,9.068 -0.18,13.796 4.755,-6.006 8.528,-12.395 11.403,-19.136 3.018,8.293 7.322,16.084 13.049,23.318 -0.645,-15.278 0.174,-29.195 2.381,-41.82 4.311,-6.221 7.634,-13.206 9.825,-21.067 h 1.035 c 2.874,11.778 8.032,22.661 15.833,32.511 -0.492,-11.613 -0.134,-22.441 1.034,-32.511 h 2.912 c 0.4,6.972 0.444,14.276 0.119,21.921 5.374,-6.783 9.494,-14.059 12.477,-21.778 -0.111,7.658 0.486,15.037 1.865,22.112 -2.653,5.976 -6.028,11.908 -10.205,17.794 4.522,-2.453 8.756,-5.131 12.663,-8.059 3.035,9.675 7.732,18.702 14.3,26.995 -0.693,-16.377 0.297,-31.193 2.879,-44.53 l 0.263,-0.384 c 1.007,18.979 6.764,36.098 18.477,50.886 -0.36,-8.509 -0.266,-16.595 0.269,-24.271 2.822,12.177 8.052,23.409 16.08,33.547 -0.522,-12.361 -0.085,-23.829 1.27,-34.445 6.769,-9.737 11.15,-20.407 13.46,-31.889 2.584,13.341 3.574,28.161 2.881,44.545 12.032,-15.191 17.78,-32.843 18.547,-52.444 h 1.649 c 3.226,14.408 4.521,30.612 3.756,48.729 11.265,-14.226 17.02,-30.609 18.34,-48.729 h 11.549 V 173.094 H 773.8 c -7.039,-3.52 -14.888,-5.158 -24.325,-3.105 0.765,1.034 1.531,2.071 2.296,3.105 h -5.898 c -10.336,-9.349 -25.363,-7.968 -39.882,-7.748 2.769,1.701 4.679,4.188 5.415,7.748 -10.214,-3.228 -20.429,-6.453 -30.646,-9.679 -9.201,-15.911 -24.586,-19.94 -41.916,-20.232 11.651,8.777 14.414,18.898 2.865,29.911 h -29.513 c 1.65,-7.517 4.744,-13.757 10.826,-17.369 -19.732,-4.638 -31.084,5.571 -41.535,17.369 h -36.7 c -15.9,-22.56 -37.385,-16.208 -42.635,-13.325 4.939,2.821 8.202,6.973 8.708,13.325 h -25.127 c -0.023,-3.19 1.29,-6.073 3.297,-8.797 -9.766,-0.982 -16.735,1.975 -20.962,8.797 h -64.77 c -14.503,-10.931 -29.434,-10.06 -40.175,-9.251 2.813,2.631 5.104,5.6 6.347,9.251 h -76.329 c -11.991,-4.622 -25.055,-7.086 -39.632,-6.506 2.397,1.736 4.069,3.839 4.618,6.506 h -48.658 c -2.089,-4.203 -5.129,-7.025 -8.88,-8.814 0.614,2.699 0.614,5.556 -0.99,8.814 h -25.916 c 1.171,-6.87 4.178,-11.524 9.041,-13.935 -10.515,-1.223 -20.691,3.332 -30.835,8.459 -6.392,-4.793 -14.014,-7.521 -22.621,-8.597 5.597,3.546 10.474,7.543 11.259,14.073 h -39.572 c -1.638,-7.248 -6.92,-10.04 -13.727,-10.969 3.296,1.918 5.855,4.581 4.71,10.969 h -89.5 v 34.744 c 3.72,10.501 3.559,12.499 12.167,23.959"
           style="fill:#a6c960;fill-opacity:1;fill-rule:evenodd;stroke:none"
           id="path13187" /><path
           d="m 73.615,23.928 c 9.542,0 17.277,-3.743 17.277,-8.361 0,-4.617 -7.735,-8.36 -17.277,-8.36 -9.542,0 -17.277,3.743 -17.277,8.36 0,4.618 7.735,8.361 17.277,8.361 m -45.98,30.653 c 5.078,0 9.196,-2.995 9.196,-6.689 0,-3.694 -4.118,-6.688 -9.196,-6.688 -5.079,0 -9.197,2.994 -9.197,6.688 0,3.694 4.118,6.689 9.197,6.689 m 46.816,47.93 c 3.54,0 6.41,-1.496 6.41,-3.344 0,-1.847 -2.87,-3.345 -6.41,-3.345 -3.539,0 -6.409,1.498 -6.409,3.345 0,1.848 2.87,3.344 6.409,3.344 M 257.813,76.872 c 2.617,0 4.738,-0.749 4.738,-1.673 0,-0.923 -2.121,-1.673 -4.738,-1.673 -2.616,0 -4.736,0.75 -4.736,1.673 0,0.924 2.12,1.673 4.736,1.673 m 54.062,27.867 c 4.155,0 7.524,-2.497 7.524,-5.573 0,-3.079 -3.369,-5.574 -7.524,-5.574 -4.155,0 -7.523,2.495 -7.523,5.574 0,3.076 3.368,5.573 7.523,5.573 m 79.42,-84.159 c 8.311,0 15.049,-3.244 15.049,-7.244 0,-4.002 -6.738,-7.246 -15.049,-7.246 -8.311,0 -15.048,3.244 -15.048,7.246 0,4 6.737,7.244 15.048,7.244 m -7.804,73.29 c 2.925,0 5.295,-1.123 5.295,-2.51 0,-1.383 -2.37,-2.506 -5.295,-2.506 -2.924,0 -5.295,1.123 -5.295,2.506 0,1.387 2.371,2.51 5.295,2.51 m 89.452,-4.46 c 6.619,0 11.983,-3.243 11.983,-7.246 0,-4 -5.364,-7.244 -11.983,-7.244 -6.617,0 -11.981,3.244 -11.981,7.244 0,4.003 5.364,7.246 11.981,7.246 M 699.779,69.345 c 5.693,0 10.31,-2.369 10.31,-5.294 0,-2.925 -4.617,-5.294 -10.31,-5.294 -5.695,0 -10.31,2.369 -10.31,5.294 0,2.925 4.615,5.294 10.31,5.294 m 71.339,37.343 c 4.154,0 7.524,-1.623 7.524,-3.624 0,-1.999 -3.37,-3.621 -7.524,-3.621 -4.156,0 -7.525,1.622 -7.525,3.621 0,2.001 3.369,3.624 7.525,3.624 m -10.59,-91.404 c 6.618,0 11.984,-2.121 11.984,-4.737 0,-2.615 -5.366,-4.736 -11.984,-4.736 -6.618,0 -11.982,2.121 -11.982,4.736 0,2.616 5.364,4.737 11.982,4.737 m -80.534,85.272 c 7.694,0 13.934,-3.119 13.934,-6.967 0,-3.847 -6.24,-6.967 -13.934,-6.967 -7.695,0 -13.932,3.12 -13.932,6.967 0,3.848 6.237,6.967 13.932,6.967 M 553.48,25.315 c 6.771,0 12.261,-3.367 12.261,-7.523 0,-4.155 -5.49,-7.524 -12.261,-7.524 -6.772,0 -12.262,3.369 -12.262,7.524 0,4.156 5.49,7.523 12.262,7.523 m 111.465,3.345 c 4.926,0 8.917,-1.746 8.917,-3.902 0,-2.154 -3.991,-3.901 -8.917,-3.901 -4.924,0 -8.917,1.747 -8.917,3.901 0,2.156 3.993,3.902 8.917,3.902 m 9.197,13.934 c 5.386,0 9.754,-2.995 9.754,-6.689 0,-3.694 -4.368,-6.687 -9.754,-6.687 -5.386,0 -9.753,2.993 -9.753,6.687 0,3.694 4.367,6.689 9.753,6.689 m -22.85,33.44 c 9.08,0 16.44,-2.246 16.44,-5.016 0,-2.771 -7.36,-5.017 -16.44,-5.017 -9.081,0 -16.441,2.246 -16.441,5.017 0,2.77 7.36,5.016 16.441,5.016 m -94.468,25.08 c 4.617,0 8.361,-3.369 8.361,-7.523 0,-4.155 -3.744,-7.525 -8.361,-7.525 -4.617,0 -8.36,3.37 -8.36,7.525 0,4.154 3.743,7.523 8.36,7.523 m 16.998,-41.243 c 5.695,0 10.31,-1.123 10.31,-2.508 0,-1.385 -4.615,-2.509 -10.31,-2.509 -5.693,0 -10.31,1.124 -10.31,2.509 0,1.385 4.617,2.508 10.31,2.508 M 452.602,39.249 c 11.696,0 21.177,-3.743 21.177,-8.36 0,-4.618 -9.481,-8.361 -21.177,-8.361 -11.698,0 -21.179,3.743 -21.179,8.361 0,4.617 9.481,8.36 21.179,8.36 M 340.577,54.854 c 7.695,0 13.934,-3.494 13.934,-7.802 0,-4.309 -6.239,-7.802 -13.934,-7.802 -7.695,0 -13.933,3.493 -13.933,7.802 0,4.308 6.238,7.802 13.933,7.802 m -103.106,59.634 c 3.846,0 6.966,-1.683 6.966,-3.76 0,-2.08 -3.12,-3.763 -6.966,-3.763 -3.847,0 -6.967,1.683 -6.967,3.763 0,2.077 3.12,3.76 6.967,3.76 M 213.366,89.129 c 4.848,0 8.778,-1.496 8.778,-3.344 0,-1.847 -3.93,-3.343 -8.778,-3.343 -4.848,0 -8.779,1.496 -8.779,3.343 0,1.848 3.931,3.344 8.779,3.344 M 168.083,31.445 c 4.462,0 8.08,-1.933 8.08,-4.317 0,-2.386 -3.618,-4.32 -8.08,-4.32 -4.464,0 -8.081,1.934 -8.081,4.32 0,2.384 3.617,4.317 8.081,4.317 m -16.163,27.31 c 6.464,0 11.704,-2.932 11.704,-6.547 0,-3.618 -5.24,-6.55 -11.704,-6.55 -6.464,0 -11.704,2.932 -11.704,6.55 0,3.615 5.24,6.547 11.704,6.547 m 89.591,-6.13 c 5.31,0 9.614,-2.185 9.614,-4.877 0,-2.693 -4.304,-4.876 -9.614,-4.876 -5.309,0 -9.614,2.183 -9.614,4.876 0,2.692 4.305,4.877 9.614,4.877"
           style="fill:#6b391a;fill-opacity:1;fill-rule:evenodd;stroke:none"
           id="path13189" /><path
           d="m 783.524,31.174 c 1.46,0 2.647,-1.249 2.647,-2.787 0,-1.54 -1.187,-2.787 -2.647,-2.787 -1.462,0 -2.649,1.247 -2.649,2.787 0,1.538 1.187,2.787 2.649,2.787 m -15.746,45.423 c 2.617,0 4.738,-0.687 4.738,-1.534 0,-0.845 -2.121,-1.533 -4.738,-1.533 -2.616,0 -4.737,0.688 -4.737,1.533 0,0.847 2.121,1.534 4.737,1.534 m 5.157,-26.753 c 3.001,0 5.433,-0.686 5.433,-1.531 0,-0.848 -2.432,-1.534 -5.433,-1.534 -3.003,0 -5.436,0.686 -5.436,1.534 0,0.845 2.433,1.531 5.436,1.531 M 712.32,37.583 c 3.388,0 6.131,-4.492 6.131,-10.032 0,-5.541 -2.743,-10.033 -6.131,-10.033 -3.384,0 -6.13,4.492 -6.13,10.033 0,5.54 2.746,10.032 6.13,10.032 m -18.947,90.845 c 2.462,0 4.457,-0.873 4.457,-1.951 0,-1.078 -1.995,-1.951 -4.457,-1.951 -2.464,0 -4.46,0.873 -4.46,1.951 0,1.078 1.996,1.951 4.46,1.951 m -41.522,-18.95 c 2.616,0 4.736,-0.623 4.736,-1.392 0,-0.77 -2.12,-1.394 -4.736,-1.394 -2.617,0 -4.738,0.624 -4.738,1.394 0,0.769 2.121,1.392 4.738,1.392 M 552.924,55.417 c 2.77,0 5.016,-1.622 5.016,-3.623 0,-1.999 -2.246,-3.621 -5.016,-3.621 -2.771,0 -5.017,1.622 -5.017,3.621 0,2.001 2.246,3.623 5.017,3.623 M 514.186,33.945 c 0.462,0 0.84,-1.681 0.84,-3.755 0,-2.074 -0.378,-3.753 -0.84,-3.753 -0.464,0 -0.84,1.679 -0.84,3.753 0,2.074 0.376,3.755 0.84,3.755 m 77.194,3.638 c 3.077,0 5.573,-1.248 5.573,-2.786 0,-1.539 -2.496,-2.787 -5.573,-2.787 -3.079,0 -5.573,1.248 -5.573,2.787 0,1.538 2.494,2.786 5.573,2.786 m 39.014,-16.72 c 3.384,0 6.129,-1.622 6.129,-3.623 0,-2.001 -2.745,-3.623 -6.129,-3.623 -3.386,0 -6.131,1.622 -6.131,3.623 0,2.001 2.745,3.623 6.131,3.623 m -20.901,35.668 c 3.232,0 5.851,-2.121 5.851,-4.737 0,-2.616 -2.619,-4.737 -5.851,-4.737 -3.231,0 -5.852,2.121 -5.852,4.737 0,2.616 2.621,4.737 5.852,4.737 m -28.145,28.983 c 3.078,0 5.573,-1.374 5.573,-3.067 0,-1.692 -2.495,-3.064 -5.573,-3.064 -3.077,0 -5.575,1.372 -5.575,3.064 0,1.693 2.498,3.067 5.575,3.067 m -10.59,46.258 c 5.848,0 10.59,-2.496 10.59,-5.573 0,-3.078 -4.742,-5.573 -10.59,-5.573 -5.848,0 -10.588,2.495 -10.588,5.573 0,3.077 4.74,5.573 10.588,5.573 M 481.861,121.74 c 5.08,0 9.198,-2.495 9.198,-5.573 0,-3.079 -4.118,-5.573 -9.198,-5.573 -5.077,0 -9.194,2.494 -9.194,5.573 0,3.078 4.117,5.573 9.194,5.573 m -6.13,-59.077 c 4.772,0 8.64,-2.371 8.64,-5.296 0,-2.925 -3.868,-5.294 -8.64,-5.294 -4.771,0 -8.637,2.369 -8.637,5.294 0,2.925 3.866,5.296 8.637,5.296 m -71.617,56.848 c 4.31,0 7.804,-2.246 7.804,-5.017 0,-2.77 -3.494,-5.016 -7.804,-5.016 -4.308,0 -7.802,2.246 -7.802,5.016 0,2.771 3.494,5.017 7.802,5.017 m 11.147,-59.634 c 4.618,0 8.36,-1.748 8.36,-3.903 0,-2.154 -3.742,-3.901 -8.36,-3.901 -4.617,0 -8.36,1.747 -8.36,3.901 0,2.155 3.743,3.903 8.36,3.903 m -96.975,23.407 c 5.54,0 10.031,-2.245 10.031,-5.016 0,-2.771 -4.491,-5.015 -10.031,-5.015 -5.541,0 -10.032,2.244 -10.032,5.015 0,2.771 4.491,5.016 10.032,5.016 M 298.221,26.993 c 6.156,0 11.146,-2.12 11.146,-4.736 0,-2.616 -4.99,-4.739 -11.146,-4.739 -6.157,0 -11.147,2.123 -11.147,4.739 0,2.616 4.99,4.736 11.147,4.736 M 24.151,25.878 c 4.848,0 8.778,-2.246 8.778,-5.017 0,-2.77 -3.93,-5.014 -8.778,-5.014 -4.847,0 -8.777,2.244 -8.777,5.014 0,2.771 3.93,5.017 8.777,5.017 m -2.787,87.223 c 4.387,0 7.942,-1.497 7.942,-3.344 0,-1.847 -3.555,-3.345 -7.942,-3.345 -4.386,0 -7.942,1.498 -7.942,3.345 0,1.847 3.556,3.344 7.942,3.344 M 242.625,85.234 c 2.078,0 3.763,-0.873 3.763,-1.95 0,-1.078 -1.685,-1.951 -3.763,-1.951 -2.077,0 -3.761,0.873 -3.761,1.951 0,1.077 1.684,1.95 3.761,1.95 M 230.364,25.6 c 7.772,0 14.073,-2.496 14.073,-5.574 0,-3.078 -6.301,-5.573 -14.073,-5.573 -7.772,0 -14.072,2.495 -14.072,5.573 0,3.078 6.3,5.574 14.072,5.574 m -38.455,27.031 c 2.693,0 4.876,-1.311 4.876,-2.927 0,-1.616 -2.183,-2.927 -4.876,-2.927 -2.694,0 -4.877,1.311 -4.877,2.927 0,1.616 2.183,2.927 4.877,2.927 m -56.43,-20.065 c 4.463,0 8.081,-2.557 8.081,-5.712 0,-3.155 -3.618,-5.713 -8.081,-5.713 -4.463,0 -8.082,2.558 -8.082,5.713 0,3.155 3.619,5.712 8.082,5.712 m 12.818,65.486 c 2.463,0 4.459,-1.996 4.459,-4.458 0,-2.462 -1.996,-4.457 -4.459,-4.457 -2.462,0 -4.458,1.995 -4.458,4.457 0,2.462 1.996,4.458 4.458,4.458 M 64.418,71.857 c 4.001,0 7.246,-2.056 7.246,-4.596 0,-2.54 -3.245,-4.598 -7.246,-4.598 -4.001,0 -7.245,2.058 -7.245,4.598 0,2.54 3.244,4.596 7.245,4.596"
           style="fill:#9c613d;fill-opacity:1;fill-rule:evenodd;stroke:none"
           id="path13191" /><path
           d="m 322.282,453.767 c 3.077,1.572 6.563,2.46 10.255,2.46 4.59,0 8.86,-1.372 12.423,-3.725 3.319,3.082 7.579,5.166 12.299,5.772 3.189,5.595 9.207,9.368 16.108,9.368 7.927,0 14.69,-4.98 17.335,-11.98 9.75,-0.25 17.613,-8.089 17.902,-17.829 H 247.451 c -0.662,2.111 -1.022,4.357 -1.022,6.688 0,12.313 9.981,22.294 22.295,22.294 6.252,0 11.902,-2.575 15.95,-6.723 4.259,1.816 8.945,2.821 13.867,2.821 9.136,0 17.462,-3.463 23.741,-9.146"
           style="fill:#d9e7eb;fill-opacity:1;fill-rule:evenodd;stroke:none"
           id="path13193" /><path
           d="m 580.391,696.526 c -0.005,0.185 -0.009,0.371 -0.009,0.557 0,10.158 8.235,18.392 18.392,18.392 4.545,0 8.704,-1.648 11.914,-4.379 3.302,4.65 8.348,7.978 14.181,9.034 -4.113,4.931 -6.588,11.274 -6.588,18.197 0,15.698 12.726,28.423 28.424,28.423 15.559,0 28.197,-12.501 28.418,-28.007 4.64,2.233 9.841,3.484 15.332,3.484 17.965,0 32.8,-13.384 35.084,-30.723 7.602,-1.841 13.682,-7.577 16.007,-14.978 z"
           style="fill:#d9e7eb;fill-opacity:1;fill-rule:evenodd;stroke:none"
           id="path13195" /></g></g></g></svg>
