<?xml version="1.0" encoding="UTF-8"?>
<svg xmlns="http://www.w3.org/2000/svg" viewBox="0 0 2400 420" width="2400" height="420" preserveAspectRatio="none">
  <defs>
    <!-- Light blue gradients per depth -->
    <linearGradient id="farBlueLight" x1="0" y1="0" x2="0" y2="1">
      <stop offset="0%" stop-color="#e3f0ff"/>
      <stop offset="100%" stop-color="#c6dbf7"/>
    </linearGradient>
    <linearGradient id="midBlueLight" x1="0" y1="0" x2="0" y2="1">
      <stop offset="0%" stop-color="#a8c8f0"/>
      <stop offset="100%" stop-color="#7ea9e0"/>
    </linearGradient>
    <linearGradient id="frontBlueLight" x1="0" y1="0" x2="0" y2="1">
      <stop offset="0%" stop-color="#5f8fcf"/>
      <stop offset="100%" stop-color="#3c6fb4"/>
    </linearGradient>
    <!-- Window glow -->
    <linearGradient id="winGlow" x1="0" y1="0" x2="0" y2="1">
      <stop offset="0%" stop-color="#fff9cc"/>
      <stop offset="100%" stop-color="#f2e6a8"/>
    </linearGradient>
  </defs>

  <!-- FAR LAYER -->
  <g fill="url(#farBlueLight)" opacity="0.95">
    <path d="M0,330
             L0,210 40,210 40,150 100,150 100,210 160,210 160,180 220,180 220,210
             280,210 280,140 360,140 360,210 440,210 440,170 520,170 520,210
             600,210 600,150 680,150 680,210 760,210 760,180 840,180 840,210
             920,210 920,140 1000,140 1000,210 1080,210 1080,170 1160,170 1160,210
             1240,210 1240,150 1320,150 1320,210 1400,210 1400,180 1480,180 1480,210
             1560,210 1560,140 1640,140 1640,210 1720,210 1720,170 1800,170 1800,210
             1880,210 1880,150 1960,150 1960,210 2040,210 2040,180 2120,180 2120,210
             2200,210 2200,140 2280,140 2280,210 2360,210 2360,170 2400,170 2400,330 Z"/>
  </g>

  <!-- MID LAYER -->
  <g fill="url(#midBlueLight)" opacity="0.98">
    <path d="M0,360
             L0,240 50,240 50,200 110,200 110,240 160,240 160,210 220,210 220,240 
             280,240 280,170 340,170 340,240 400,240 400,190 460,190 460,240 
             520,240 520,180 580,180 580,240 640,240 640,220 700,220 700,240
             760,240 760,200 820,200 820,240 880,240 880,210 940,210 940,240
             1000,240 1000,180 1060,180 1060,240 1120,240 1120,220 1180,220 1180,240
             1240,240 1240,200 1300,200 1300,240 1360,240 1360,210 1420,210 1420,240
             1480,240 1480,180 1540,180 1540,240 1600,240 1600,220 1660,220 1660,240
             1720,240 1720,200 1780,200 1780,240 1840,240 1840,210 1900,210 1900,240
             1960,240 1960,180 2020,180 2020,240 2080,240 2080,220 2140,220 2140,240
             2200,240 2200,200 2260,200 2260,240 2320,240 2320,210 2380,210 2380,240
             2400,240 2400,360 Z"/>
  </g>

  <!-- FRONT LAYER -->
  <g fill="url(#frontBlueLight)">
    <path d="M0,400
             L0,290 40,290 40,250 90,250 90,290 140,290 140,260 190,260 190,290 
             240,290 240,220 300,220 300,290 360,290 360,240 420,240 420,290 
             480,290 480,230 560,230 560,290 620,290 620,260 700,260 700,290
             760,290 760,210 840,210 840,290 900,290 900,250 960,250 960,290
             1020,290 1020,240 1080,240 1080,290 1140,290 1140,220 1220,220 1220,290
             1280,290 1280,260 1360,260 1360,290 1420,290 1420,240 1480,240 1480,290
             1540,290 1540,230 1620,230 1620,290 1680,290 1680,260 1760,260 1760,290
             1820,290 1820,210 1900,210 1900,290 1960,290 1960,250 2020,250 2020,290
             2080,290 2080,240 2140,240 2140,290 2200,290 2200,220 2280,220 2280,290
             2340,290 2340,260 2400,260 2400,400 Z"/>

    <!-- extra density buildings -->
    <rect x="260" y="240" width="48" height="160"/>
    <rect x="332" y="220" width="64" height="180"/>
    <rect x="416" y="250" width="40" height="150"/>
    <rect x="690" y="235" width="52" height="165"/>
    <rect x="752" y="210" width="56" height="190"/>
    <rect x="816" y="240" width="44" height="160"/>
    <rect x="1088" y="230" width="50" height="170"/>
    <rect x="1150" y="210" width="62" height="190"/>
    <rect x="1218" y="235" width="46" height="165"/>
    <rect x="1700" y="240" width="54" height="160"/>
    <rect x="1762" y="220" width="60" height="180"/>
    <rect x="1830" y="245" width="44" height="155"/>
    <rect x="2060" y="230" width="56" height="170"/>
    <rect x="2126" y="210" width="62" height="190"/>
    <rect x="2192" y="235" width="48" height="165"/>

    <!-- Windows -->
    <g fill="url(#winGlow)" opacity="0.9">
      <rect x="338" y="232" width="12" height="16" rx="2"/>
      <rect x="356" y="232" width="12" height="16" rx="2"/>
      <rect x="374" y="232" width="12" height="16" rx="2"/>
      <rect x="338" y="254" width="12" height="16" rx="2"/>
      <rect x="356" y="254" width="12" height="16" rx="2"/>
      <rect x="374" y="254" width="12" height="16" rx="2"/>

      <rect x="760" y="222" width="12" height="16" rx="2"/>
      <rect x="778" y="222" width="12" height="16" rx="2"/>
      <rect x="796" y="222" width="12" height="16" rx="2"/>
      <rect x="760" y="244" width="12" height="16" rx="2"/>
      <rect x="778" y="244" width="12" height="16" rx="2"/>
      <rect x="796" y="244" width="12" height="16" rx="2"/>

      <rect x="1768" y="232" width="12" height="16" rx="2"/>
      <rect x="1786" y="232" width="12" height="16" rx="2"/>
      <rect x="1804" y="232" width="12" height="16" rx="2"/>
      <rect x="1768" y="254" width="12" height="16" rx="2"/>
      <rect x="1786" y="254" width="12" height="16" rx="2"/>
      <rect x="1804" y="254" width="12" height="16" rx="2"/>
    </g>
  </g>

  <!-- Seam baseline -->
  <rect x="0" y="400" width="2400" height="20" fill="#305c94" opacity="0.35"/>
</svg>
